<?xml version="1.0" encoding="utf-8"?>
<!-- Generator: Adobe Illustrator 27.5.0, SVG Export Plug-In . SVG Version: 6.00 Build 0)  -->
<svg version="1.1" id="Capa_1" xmlns="http://www.w3.org/2000/svg" xmlns:xlink="http://www.w3.org/1999/xlink" x="0px" y="0px"
	 viewBox="0 0 2122 2122" style="enable-background:new 0 0 2122 2122;" xml:space="preserve">
<path style="fill:#3F251C;" d="M1182.853,1331.169c-0.001,0-0.001-0.001-0.001-0.001c-9.799-9.899-55.189-25.134-79.521-47.682
	c-7.446-6.9-12.944-14.476-14.816-22.804c-7.996-35.554,8.094-83.686-8.117-91.626c-0.002,0-0.003,0-0.005-0.002
	c15.521-34.81,20.194-71.944,16.861-127.088c-4.259-70.494-4.28-146.997-30.266-205.825c-25.988-58.828-39.332-74.99-42.356-153.612
	c-3.024-78.622-7.54-120.053-21.511-170.403c-13.971-50.35-49.064-131.349-73.631-166.679c-4.91-7.06-10.574-12.893-16.478-17.779
	c-23.641-19.566-51.29-23.281-51.29-23.281s-16.863,39.846-17.912,79.599c-1.05,39.754-4.404,50.886,16.81,97.346
	c21.214,46.462,65.504,165.444,82.921,220.476c17.418,55.03,34.743,94.249,39.702,138.242
	c4.958,43.992,24.845,82.767,13.198,137.541s-22.919,67.273-39.222,109.661c-7.96,20.694-14.667,30.482-18.891,40.204
	c0,0-15.402,12.751-39.705,43.029c-3.475,4.33-7.132,9.017-10.952,14.077c-30.535,40.449-61.62,84.509-61.62,84.509
	s28.972-15.555,47.635-39.884c16.116-21.009,17.753-15.937,31.799-28.733c2.219-2.021,4.72-4.449,7.665-7.537
	c9.364-9.818,16.638-15.877,21.881-19.6c4.032,40.846-7.43,41.636,3.62,80.706c11.328,40.052,31.996,63.066,31.996,63.066
	s14.373-16.22,29.243-32.548c11.196-12.293,22.674-24.648,28.514-30.188c12.512-11.869,9.338-12.181,30.457-46.7
	c-0.731,11.695-0.308,27.193,3.584,45.219c2.145,9.935,8.264,20.476,16.265,30.739c24.755,31.754,67.66,60.82,67.717,60.858v0.001
	l0.003,0.002l0.054-0.02l0.022-0.008l36.128-13.184l0.228-0.083C1182.859,1331.174,1182.855,1331.172,1182.853,1331.169z"/>
<path style="fill:#7F4C30;" d="M868.169,968.086c-15.391-73.848-55.863-124.899-95.729-218.264
	c-39.867-93.365-43.405-113.859-51.424-206.128c-8.019-92.268,11.477-193.247,35.62-236.769
	c4.411-7.953,10.754-13.588,18.156-17.521c-13.077,1.627-26.932,4.099-40.812,7.81C648.12,320.169,629.16,429.732,615.834,499.861
	c-11.26,59.259-10.717,214.972,14.768,361.681c12.035,4.76,23.836,10.498,34.907,17.482c-0.332-1.82-0.665-3.692-1.001-5.638
	c-10.074-58.339-39.951-124.409-31.308-181.302c8.643-56.893,1.563-82.614,4.779-125.099c3.216-42.484,16.519-179.327,57.23-233.843
	c0,0,31.828-14.29,22.503,23.375c-9.324,37.665-10.946,28.272-14.668,98.385c-3.721,70.114-1.931,156.863,7.359,210.66
	c9.29,53.797,67.659,106.634,35.84,141.348c-31.819,34.714-73.414,84.106-37.107,80.474c36.307-3.631,74.105-44.454,89.311-2.232
	c15.206,42.223,87.124,145.588,64.179,199.822c-22.946,54.234-31.845,140.192-62.771,113.874
	c-6.615-5.63-14.196-16.157-22.19-29.718c4.754,30.124,9.268,58.263,14.413,81.915c24.688,36.146,50.536,66.746,77.039,87.599
	c-20.334-23.535-38.796-52.591-43.065-69.572c-9.532-37.917,22.827-91.88,45.891-130.151
	C895.005,1100.649,883.559,1041.933,868.169,968.086z"/>
<g>
	<path style="fill:#7F4C30;" d="M1298.172,830.515c-11.944-69.167-27.592-113.951-62.056-160.762
		c-34.465-46.812-58.056-61.205-100.299-122.502c-42.243-61.298-89.774-76.832-76.358-121.36
		c13.416-44.526,29.136-60.432-3.466-81.183c-32.603-20.751-98.951-38.314-87.608-71.93c6.862-20.337,9.109-36.949,19.02-50.851
		c-26.283,4.423-46.625,13.311-60.239,18.397c-28.856,10.779-46.228,43.491-64.74,48.332c8.426,0.641,35.558,24.87,50.587,39.012
		c5.904,4.887,11.568,10.719,16.478,17.779c24.568,35.33,59.66,116.329,73.631,166.679c13.971,50.35,18.487,91.78,21.511,170.403
		c3.024,78.622,16.368,94.784,42.356,153.612c25.987,58.828,26.007,135.33,30.266,205.825c3.332,55.144-1.34,92.278-16.861,127.088
		c0.001,0.001,0.003,0.001,0.005,0.002c16.211,7.94,0.12,56.073,8.117,91.626c1.872,8.328,7.371,15.903,14.816,22.804
		c24.793-0.492,47.773-2.417,65.806-8.587c25.967-8.885,43.24-14.906,55.815-23.89c7.063-20.148,14.476-38.974,21.939-55.997
		c7.007-15.982,14.616-31.675,22.64-47.081c19.062-67.033,47.854-153.856,46.78-212.385
		C1315.055,867.172,1310.116,899.682,1298.172,830.515z"/>
	<path style="fill:#7F4C30;" d="M987.453,221.851c-0.018,0.024-0.03,0.051-0.049,0.076c2.119-0.357,4.3-0.661,6.497-0.954
		C991.745,221.261,989.533,221.501,987.453,221.851z"/>
</g>
<path style="fill:#7F4C30;" d="M1078.71,1283.611c-8.001-10.263-14.12-20.804-16.265-30.739
	c-3.891-18.025-4.315-33.524-3.584-45.219c-21.119,34.519-17.944,34.831-30.457,46.7c-5.841,5.54-17.318,17.895-28.514,30.188
	C1024.744,1282.742,1052.156,1283.457,1078.71,1283.611z"/>
<path style="fill:#683E29;" d="M920.345,1314.843c-6.246-12.04-9.858-18.625-5.569-50.54c4.371-32.531-1.766-38.381-9.292-63.848
	c-14.047,12.795-15.684,7.724-31.799,28.733c-18.662,24.328-47.635,39.884-47.635,39.884c4.269,16.982,22.732,46.038,43.065,69.572
	c25.068,29.013,52.984,49.626,60.701,28.771C917.721,1353.861,906.369,1333.805,920.345,1314.843z"/>
<path style="fill:#683E29;" d="M756.635,306.925c-24.142,43.522-43.638,144.501-35.62,236.769
	c8.019,92.269,11.558,112.763,51.424,206.128c39.866,93.365,80.339,144.416,95.729,218.264
	c15.391,73.848,26.836,132.564,3.773,170.835c-23.064,38.271-55.423,92.234-45.891,130.151c0,0,31.085-44.06,61.62-84.509
	c3.82-5.06,7.477-9.747,10.952-14.077c-4.994-33.551,8.905-33.05,26.279-71.496c18.966-41.968,23.175-60.282,31.343-109.179
	c8.168-48.897,1.216-100.459-16.78-182.153c-17.996-81.694-52.154-171.765-78.141-230.593
	c-25.988-58.827-35.412-62.477-44.769-106.482c-9.358-44.005,1.381-53.108,7.143-91.037c5.761-37.929,27.244-91.764,38.728-90.889
	l0,0c-0.004,0-54.526-16.848-87.634,0.747C767.389,293.337,761.046,298.972,756.635,306.925z"/>
<path style="fill:#663A27;" d="M1224.951,1251.01c-12.575,8.984-29.848,15.005-55.815,23.89c-18.033,6.17-41.013,8.095-65.806,8.587
	c24.332,22.548,69.722,37.783,79.521,47.682c1.807-0.761,3.637-1.506,5.413-2.289c1.931-0.851,3.8-1.743,5.691-2.62
	c1.746-0.81,3.518-1.602,5.229-2.434c1.416-0.688,2.776-1.409,4.167-2.112C1209.846,1296.919,1217.185,1273.163,1224.951,1251.01z"
	/>
<path style="fill:#663A27;" d="M1078.71,1283.611c-26.553-0.155-53.966-0.87-78.82,0.931c-14.87,16.328-29.243,32.548-29.243,32.548
	c-15.019,16.816-7.057,35.515-15.661,37.001c-8.602,1.485-20.787-8.722-29.74-29.16c-1.74-3.971-3.394-7.184-4.901-10.088
	c-13.977,18.962-2.625,39.018,9.472,52.572c0.001,0,0.003,0,0.005,0c17.142,2.767,38.164,3.813,61.32,3.143
	c0.042-0.001,0.086-0.002,0.129-0.004c3.794-0.111,7.646-0.268,11.547-0.471c0.138-0.008,0.278-0.016,0.417-0.024
	c3.803-0.2,7.652-0.444,11.541-0.732c0.272-0.021,0.546-0.044,0.818-0.064c3.766-0.285,7.566-0.608,11.398-0.973
	c0.414-0.04,0.833-0.086,1.247-0.127c3.706-0.362,7.435-0.756,11.19-1.195c0.559-0.064,1.122-0.139,1.681-0.206
	c3.619-0.432,7.253-0.893,10.906-1.395c0.731-0.101,1.465-0.213,2.198-0.316c3.495-0.494,7-1.01,10.514-1.568
	c0.902-0.143,1.807-0.301,2.709-0.449c3.355-0.547,6.712-1.112,10.073-1.719c1.087-0.196,2.172-0.409,3.258-0.611
	c3.183-0.591,6.366-1.194,9.546-1.838c1.274-0.258,2.545-0.537,3.819-0.804c2.998-0.627,5.994-1.259,8.981-1.933
	c1.432-0.323,2.854-0.67,4.283-1.003c2.829-0.66,5.658-1.322,8.471-2.024c1.553-0.388,3.092-0.802,4.639-1.203
	c2.672-0.692,5.345-1.381,7.996-2.111c1.671-0.461,3.323-0.95,4.984-1.425c2.504-0.716,5.011-1.426,7.489-2.176
	c1.778-0.538,3.526-1.109,5.289-1.664c0.053-0.017,0.107-0.035,0.161-0.052C1146.369,1344.431,1103.465,1315.365,1078.71,1283.611z"
	/>
<path style="fill:#663A27;" d="M968.384,272.778c-11.343,33.616,55.005,51.179,87.608,71.93
	c32.603,20.751,16.882,36.657,3.466,81.183c-13.416,44.528,34.115,60.062,76.358,121.36c42.243,61.297,65.834,75.69,100.299,122.502
	c34.465,46.811,50.113,91.595,62.056,160.762s16.883,36.656,18.138,105.031c1.074,58.529-27.718,145.353-46.78,212.385
	c13.301-25.537,27.826-50.212,43.11-73.785c5.96-34.402,9.983-70.438,10.649-97.595c1.3-52.987,10.748-152.23,7.91-199.226
	c-2.839-46.997-46.429-192.481-88.065-296.093s-57.89-106.082-73.981-153.427c-7.844-23.08-3.427-36.944,3.141-45.139
	c-7.063-6.535-14.35-12.414-21.886-17.577c-3.881-2.658-7.71-5.143-11.509-7.528c-1.213-0.761-2.408-1.464-3.613-2.199
	c-2.599-1.584-5.186-3.128-7.745-4.588c-1.349-0.77-2.687-1.511-4.024-2.247c-2.441-1.343-4.865-2.631-7.27-3.865
	c-1.275-0.656-2.552-1.318-3.818-1.942c-2.661-1.315-5.294-2.547-7.909-3.733c-0.927-0.421-1.866-0.877-2.788-1.282
	c-3.532-1.552-7.025-3-10.471-4.327c-0.542-0.21-1.07-0.383-1.61-0.587c-2.902-1.094-5.777-2.122-8.618-3.066
	c-1.039-0.345-2.062-0.657-3.092-0.982c-2.356-0.745-4.696-1.452-7.008-2.098c-1.061-0.297-2.115-0.584-3.167-0.86
	c-2.367-0.622-4.708-1.192-7.027-1.715c-0.869-0.197-1.743-0.408-2.604-0.59c-3.003-0.637-5.972-1.208-8.894-1.691
	c-0.125-0.021-0.253-0.049-0.378-0.069c-3.22-0.525-6.389-0.955-9.51-1.306c-0.301-0.033-0.595-0.054-0.895-0.087
	c-2.724-0.292-5.41-0.522-8.056-0.691c-0.588-0.038-1.169-0.065-1.754-0.096c-2.419-0.133-4.808-0.22-7.161-0.258
	c-0.517-0.008-1.036-0.018-1.552-0.022c-2.647-0.02-5.257,0.008-7.818,0.097c-0.126,0.005-0.255,0.005-0.38,0.01
	c-8.586,0.316-16.687,1.211-24.284,2.487C977.497,235.767,975.259,252.406,968.384,272.778z"/>
<path style="fill:#543226;" d="M914.777,1264.302c-4.29,31.915-0.677,38.5,5.569,50.54c1.507,2.904,3.161,6.117,4.901,10.088
	c8.953,20.438,21.138,30.646,29.74,29.16c8.603-1.486,0.641-20.185,15.661-37.001c0,0-20.668-23.014-31.996-63.066
	c-11.05-39.071,0.412-39.86-3.62-80.706c-5.243,3.723-12.517,9.781-21.881,19.6c-2.945,3.088-5.447,5.516-7.665,7.537
	C913.011,1225.921,919.148,1231.771,914.777,1264.302z"/>
<path style="fill:#543226;" d="M823.697,379.546c-5.762,37.929-16.501,47.032-7.143,91.037
	c9.357,44.005,18.781,47.654,44.769,106.482c25.987,58.828,60.145,148.899,78.141,230.593
	c17.996,81.693,24.948,133.256,16.78,182.153c-8.168,48.897-12.377,67.211-31.343,109.179
	c-17.374,38.446-31.273,37.944-26.279,71.496c24.303-30.278,39.705-43.029,39.705-43.029l0,0
	c4.224-9.722,10.931-19.51,18.891-40.204c16.303-42.387,27.575-54.887,39.222-109.661s-8.24-93.55-13.198-137.541
	c-4.959-43.993-22.284-83.211-39.702-138.242c-17.417-55.032-61.707-174.014-82.921-220.476
	c-21.214-46.461-17.86-57.593-16.81-97.346c1.049-39.753,17.912-79.599,17.912-79.599s27.649,3.715,51.29,23.281
	c-15.029-14.142-42.161-38.372-50.587-39.012C850.94,287.782,829.458,341.617,823.697,379.546z"/>
<path style="fill:#502C1F;" d="M1169.152,327.805c16.091,47.346,32.345,49.815,73.981,153.427s85.225,249.096,88.065,296.093
	c2.839,46.996-6.609,146.239-7.91,199.226c-0.665,27.157-4.688,63.193-10.649,97.595c12.418-19.152,25.313-37.579,38.433-55.15
	c0.99-7.928,1.878-15.975,2.665-24.158c1.564-16.287,2.727-33.098,3.495-50.501c0.384-8.702,0.67-17.552,0.858-26.558
	c2.604-124.943,23.551-138.611-25.256-299.025c-1.457-4.787-2.917-9.55-4.38-14.295c-0.461-1.495-0.925-2.977-1.387-4.468
	c-0.012-0.037-0.023-0.074-0.034-0.112c-0.992-3.198-1.984-6.394-2.979-9.572c-0.007-0.022-0.015-0.045-0.022-0.067
	c-0.554-1.77-1.111-3.526-1.667-5.289c-0.02-0.063-0.039-0.125-0.059-0.188c-0.896-2.842-1.793-5.682-2.693-8.506
	c-0.003-0.01-0.006-0.02-0.01-0.03c-0.616-1.935-1.236-3.858-1.854-5.784c-0.005-0.016-0.01-0.032-0.015-0.048
	c-0.86-2.677-1.72-5.348-2.583-8.007c-0.004-0.009-0.006-0.017-0.009-0.025c-0.65-2.001-1.302-3.993-1.954-5.984
	c-0.003-0.009-0.006-0.017-0.009-0.026c-0.848-2.589-1.698-5.171-2.55-7.742c0-0.002-0.001-0.004-0.002-0.006
	c-0.669-2.02-1.341-4.035-2.013-6.044c-0.002-0.005-0.003-0.01-0.005-0.016c-0.839-2.507-1.68-5.002-2.524-7.49
	c-0.007-0.024-0.016-0.048-0.023-0.071c-0.673-1.987-1.347-3.973-2.023-5.949c-0.007-0.02-0.015-0.041-0.022-0.063
	c-0.854-2.491-1.71-4.966-2.569-7.439c-0.016-0.048-0.032-0.095-0.049-0.142c-0.659-1.899-1.317-3.801-1.979-5.688
	c-0.007-0.019-0.013-0.039-0.02-0.058c-0.901-2.568-1.809-5.113-2.715-7.658c-0.012-0.033-0.024-0.067-0.035-0.1
	c-0.635-1.781-1.267-3.572-1.904-5.341c-0.002-0.005-0.004-0.012-0.006-0.017c-0.996-2.764-1.999-5.499-3.002-8.236
	c-0.032-0.086-0.063-0.173-0.095-0.259c-0.538-1.468-1.073-2.952-1.613-4.412c-0.005-0.014-0.01-0.028-0.016-0.042
	c-1.554-4.195-3.116-8.358-4.689-12.483c-0.005-0.012-0.01-0.025-0.015-0.038c-0.408-1.071-0.822-2.119-1.232-3.185
	c-0.052-0.134-0.104-0.266-0.156-0.401c-1.139-2.96-2.277-5.917-3.427-8.838c-0.001-0.004-0.004-0.009-0.005-0.012
	c-0.655-1.665-1.317-3.302-1.976-4.954c-0.013-0.034-0.026-0.067-0.039-0.1c-0.952-2.387-1.903-4.778-2.862-7.139
	c-0.005-0.012-0.01-0.023-0.016-0.036c-0.715-1.76-1.437-3.496-2.157-5.24c-0.016-0.038-0.031-0.075-0.046-0.112
	c-0.916-2.219-1.832-4.436-2.755-6.629c-0.006-0.014-0.011-0.028-0.017-0.042c-0.75-1.782-1.505-3.543-2.26-5.308
	c-0.011-0.025-0.022-0.051-0.033-0.077c-0.902-2.109-1.807-4.213-2.717-6.298c-0.007-0.015-0.013-0.03-0.02-0.045
	c-0.783-1.793-1.569-3.572-2.357-5.346c-0.008-0.018-0.016-0.038-0.025-0.056c-0.902-2.031-1.808-4.05-2.718-6.056
	c-0.008-0.017-0.016-0.033-0.024-0.05c-0.802-1.769-1.607-3.529-2.415-5.277c-0.006-0.015-0.013-0.029-0.02-0.043
	c-0.91-1.969-1.826-3.92-2.744-5.863c-0.009-0.02-0.018-0.039-0.027-0.059c-0.819-1.732-1.636-3.461-2.461-5.173
	c-0.005-0.011-0.011-0.022-0.016-0.034c-0.935-1.94-1.877-3.854-2.82-5.767c-0.012-0.025-0.024-0.048-0.036-0.072
	c-0.816-1.655-1.63-3.317-2.452-4.951c-0.004-0.009-0.009-0.017-0.012-0.026c-0.984-1.956-1.979-3.878-2.972-5.805
	c-0.014-0.026-0.026-0.052-0.041-0.078c-0.797-1.545-1.589-3.106-2.392-4.631c-0.002-0.005-0.005-0.01-0.008-0.014
	c-1.088-2.068-2.191-4.091-3.29-6.122c-0.021-0.039-0.042-0.078-0.064-0.118c-0.719-1.327-1.43-2.678-2.154-3.988
	c-0.002-0.004-0.004-0.008-0.006-0.012c-1.8-3.26-3.616-6.472-5.448-9.633c-0.002-0.003-0.003-0.005-0.004-0.007
	c-0.728-1.258-1.47-2.473-2.204-3.713c-0.019-0.033-0.038-0.064-0.057-0.097c-1.141-1.928-2.279-3.864-3.432-5.753
	c-0.004-0.005-0.007-0.011-0.01-0.016c-0.858-1.404-1.728-2.769-2.592-4.152c-0.013-0.019-0.025-0.039-0.037-0.058
	c-1.057-1.688-2.11-3.382-3.177-5.037c-0.003-0.003-0.004-0.005-0.007-0.008c-0.911-1.413-1.833-2.793-2.752-4.182
	c-0.003-0.004-0.005-0.008-0.008-0.013c-1.05-1.585-2.1-3.169-3.161-4.722c0-0.001,0-0.001,0-0.002
	c-0.949-1.39-1.907-2.753-2.865-4.118c-0.002-0.003-0.004-0.006-0.006-0.008c-1.048-1.492-2.1-2.974-3.158-4.434
	c-0.004-0.006-0.008-0.01-0.012-0.016c-0.975-1.343-1.955-2.67-2.94-3.985c-0.004-0.006-0.008-0.012-0.012-0.017
	c-1.065-1.424-2.136-2.831-3.212-4.222c-0.002-0.002-0.003-0.004-0.005-0.006c-0.997-1.289-1.997-2.569-3.003-3.83
	c-0.001-0.001-0.001-0.001-0.001-0.002c-1.089-1.364-2.187-2.702-3.288-4.032c-0.003-0.003-0.005-0.007-0.008-0.01
	c-1.013-1.224-2.026-2.449-3.048-3.646c-0.002-0.001-0.004-0.004-0.005-0.006c-1.126-1.316-2.265-2.595-3.403-3.877
	c-0.002-0.001-0.004-0.004-0.005-0.005c-1.015-1.142-2.027-2.296-3.052-3.409c-1.199-1.302-2.414-2.557-3.625-3.819
	c-0.99-1.032-1.973-2.086-2.972-3.09c-1.399-1.406-2.819-2.751-4.235-4.104c-0.834-0.796-1.655-1.626-2.495-2.403
	c0,0-0.001-0.001-0.002-0.002l0,0C1165.725,290.862,1161.308,304.725,1169.152,327.805z"/>
<path style="fill:#77533B;" d="M873.868,359.45c-0.061-10.542-5.013-29.033-5.013-29.033s-8.742,15.58-10.768,34.396
	c-2.027,18.817-3.906,38.488,0.487,58.835c4.393,20.347,6.077,40.281,11.76,37.541c5.682-2.74-1.04-15.649,0.56-42.307
	C872.493,392.224,873.931,369.992,873.868,359.45z"/>
<path style="fill:#77533B;" d="M977.657,542.906c7.312,32.153,9.818,46.67,20.065,44.9c10.247-1.769-4.841-48.409-13.418-77.706
	c-8.577-29.297-41.31-96.633-41.31-96.633s5.37,41.282,10.911,63.19C959.448,498.563,970.346,510.751,977.657,542.906z"/>
<path style="fill:#93593B;" d="M1102.717,538.897c-47.538-41.036-85.321-76.508-77.808-104.294
	c7.513-27.785,21.905-53.134,6.102-75.028c-15.803-21.893-52.025-27.95-52.025-27.95s-25.341,22.95-11.748,47.37
	c13.593,24.42,19.012,25.243,33.277,77.302c14.266,52.058,24.518,66.116,31.367,133.525c6.849,67.409-6.348,52.1,13.166,124.357
	c19.512,72.257,25.756,108.215,49.897,74.975c24.143-33.239,49.87-67.581,48.382-127.122
	C1141.839,602.491,1150.254,579.933,1102.717,538.897z"/>
<path style="fill:#93593B;" d="M1277.318,918.537c-22.977-31.208-29.87-40.57-24.108-78.499
	c5.762-37.929-13.346-138.396-71.179-137.203c0,0-40.851,79.163-59.624,133.409c-18.773,54.246-32.435,56.605-19.349,101.832
	c7.916,27.357,16.355,43.062,19.928,62.795c0.638-14.84,3.097-33.805,0.043-49.096c-6.367-31.877-7.208-23.818-1.141-55.203
	c6.066-31.386,32.993-86.161,48.433-129.718c15.439-43.557,24.795-36.192,28.533-37.905c12.212-5.592,30.972,34.224,35.396,59.842
	c4.424,25.617-0.165,44.877-10.623,83.617c-10.458,38.74-6.57,45.983-20.791,82.734c-14.222,36.752-41.186,62.513-66.119,69.456
	c-6.519,1.815-10.112-0.141-12.003-4.556c0.059,8.365-0.653,17.765-2.485,29.043c-8.526,52.476-47.617,110.23-27.444,115.541
	c20.173,5.31,59.035-24.265,90.242-47.241c31.208-22.977,58.999-45.364,79.775-98.196
	C1285.575,966.356,1300.295,949.744,1277.318,918.537z"/>
<path style="fill:#93593B;" d="M1237.479,1099.533c-10.41-3.478-35.421,27.222-35.421,27.222s-44.82,28.846-68.726,50.561
	c-23.905,21.716-46.811,34.465-33.023,61.983c13.788,27.518,22.627,43.579,48.653,28.532c26.027-15.046,42.344-2.036,55.527-37.729
	c13.182-35.693-15.007-41.377,3.467-69.19C1226.431,1133.099,1247.89,1103.012,1237.479,1099.533z"/>
<path style="fill:#B27256;" d="M1049.429,691.438c12.009,36.179-0.569,77.923,21.87,78.006c22.439,0.082,35.947-28.632,46.94-48.997
	c10.993-20.366,12.752-48.37,14.779-67.186c2.027-18.818-7.749-57.445-5.761-71.554c1.988-14.11-15.024-29.503-25.175-33.906
	c0,0-13.675-15.385-28.857,11.28c-15.181,26.664-18.71,44.421-20.691,71.145C1050.554,656.948,1037.421,655.258,1049.429,691.438z"
	/>
<path style="fill:#B27256;" d="M1069.677,533.61c-6.88-12.003-38.593-47.713-37.76-30.414c0,0,0.841,50.7,10.567,61.191
	C1052.21,574.879,1076.558,545.612,1069.677,533.61z"/>
<path style="fill:#B27256;" d="M1136.715,1024.599c24.933-6.943,51.896-32.705,66.119-69.456
	c14.221-36.752,10.333-43.995,20.791-82.734c10.458-38.74,15.047-57.999,10.623-83.617c-4.424-25.618-23.184-65.434-35.396-59.842
	c-3.738,1.712-13.094-5.653-28.533,37.905c-15.44,43.557-42.367,98.332-48.433,129.718c-6.067,31.386-5.225,23.327,1.141,55.203
	c3.054,15.292,0.595,34.256-0.043,49.096c-0.345,8.008-0.145,14.8,1.727,19.171
	C1126.603,1024.458,1130.196,1026.414,1136.715,1024.599z"/>
<path style="fill:#B27256;" d="M1183.055,1016.708c20.29,5.619,57.344,13.952,72.558-12.529
	c15.213-26.482,25.81-41.502,18.428-61.333c-7.382-19.83-24.707-59.049-37.469-48.93c0,0-0.885-5.124-13.462,36.62
	C1210.532,972.28,1162.765,1011.09,1183.055,1016.708z"/>
<path style="fill:#93593B;" d="M716.008,930.696c34.053,60.366,48.751,156.666,61.656,238.434
	c7.994,13.561,15.575,24.089,22.19,29.718c30.926,26.318,39.825-59.64,62.771-113.874c22.946-54.234-48.973-157.599-64.179-199.822
	c-15.206-42.222-53.004-1.399-89.311,2.232c-36.307,3.632,5.288-45.761,37.107-80.474c31.819-34.713-26.551-87.551-35.84-141.348
	c-9.29-53.797-11.08-140.546-7.359-210.66c3.722-70.113,5.344-60.72,14.668-98.385c9.325-37.665-22.503-23.375-22.503-23.375
	c-40.711,54.517-54.014,191.359-57.23,233.843c-3.216,42.485,3.864,68.206-4.779,125.099
	c-8.642,56.893,21.234,122.963,31.308,181.302c0.336,1.946,0.669,3.817,1.001,5.638C685.72,891.772,703.527,908.57,716.008,930.696z
	"/>
<path style="fill:#77533B;" d="M964.812,1183.997c13.85-19.096,7.822-38.728,14.879-58.414
	c7.056-19.686,39.127-48.967,53.261-82.954c14.134-33.987,22.142-84.398,14.003-129.471c-8.14-45.073-20.733-68.658-38.721-117.375
	c-17.988-48.718-8.194-47.45-15.641-90.572c-7.446-43.123-15.676-69.842-30.699-123.662c-15.023-53.821-26.565-41.886-26.565-41.886
	c-10.612-3.757-30.032,17.058-24.278,30.574c5.754,13.516,11.571,25.702,16.141,44.699c4.571,18.997,4.009,23.051,21.638,41.112
	c17.628,18.061,16.347,18.282,28.023,32.095c11.675,13.812-8.348,43.651-1.56,60.946c6.788,17.295,1.571,23.472,6.26,36.252
	c4.689,12.779,13.916,26.218,17.318,30.308c3.401,4.089,8.929,21.481,13.084,37.909c4.156,16.427,4.471,33.527,2.049,49.73
	c-2.422,16.203,1.197,30.176,2.339,43.169c1.143,12.993,17.464,26.004,25.479,43.844c8.015,17.841-6.724,20.19-18.753,35.458
	c-12.029,15.268-16.804,24.007-27.108,36.192c-10.305,12.185-20.869,28.813-34.423,49.62c-13.555,20.808-3.879,31.008-1.003,47.66
	C963.41,1175.88,950.961,1203.093,964.812,1183.997z"/>
<path style="fill:#77533B;" d="M994.252,1130.982c-0.954,5.367-6.047,35.714-14.51,55.455
	c-8.462,19.742-31.702,32.988-21.952,53.729c9.749,20.74,18.347,17.057,21.111,2.51c2.764-14.547,10.771-48.02,16.3-63.927
	C1000.73,1162.841,996.433,1118.712,994.252,1130.982z"/>
<path style="fill:#77533B;" d="M1082.59,1046.989c1.763-18.624,2.273-139.078-7.455-133.11c-3.323,2.039-17.724,7.018-13.118,24.689
	c4.605,17.672,2.427,11.649,2.001,47.899c-0.426,36.25,3.47,55.132-8.628,82.399c-12.097,27.267-3.092,15.792-9.907,46.331
	c-6.815,30.54-15.621,46.881-28.127,70.65c-12.507,23.768-22.412,35.153-24.365,54.396c-1.953,19.244-22.374,43.876-2.359,27.228
	c20.015-16.646,28.569-35.526,39.832-54.492c11.264-18.966,17.575-23.126,24.219-44.503c6.644-21.377,14.573-45.155,20.362-64.629
	C1080.834,1084.373,1080.827,1065.614,1082.59,1046.989z"/>
<path style="fill:#77533B;" d="M1051.4,877.086c5.886,17.45,14.313,35.694,17.628,16.698c3.315-18.996-0.132-23.677-6.849-39.664
	c-6.718-15.988-36.022-61.433-36.022-61.433s-6.857,8.16,4.487,25.987C1041.987,836.502,1045.514,859.636,1051.4,877.086z"/>
<path style="fill:#77533B;" d="M1548.07,824.543c-37.694,19.513-120.967,92.644-196.997,194.454v0
	c-13.121,17.57-26.016,35.998-38.433,55.15c-15.284,23.574-29.809,48.248-43.11,73.785c-8.024,15.406-15.633,31.099-22.64,47.081
	c-7.463,17.023-14.876,35.849-21.939,55.997c-7.766,22.153-15.106,45.909-21.6,70.703c-20.522,78.347-32.611,166.888-23.293,246.845
	c25.223,42.59,72.34,82.445,128.428,110.816c-10.534-5.522-13.371-11.447-18.881-32.211c-5.512-20.766,2.817-54.49,9.347-89.357
	c6.531-34.866,20.366-59.577,39.918-105.24c19.551-45.663,19.356-81.439,42.626-121.704c23.271-40.264,29.368-56.339,52.957-118.528
	c23.589-62.191,58.836-84.523,76.393-142.575c17.556-58.052,17.69-93.704,55.897-123.839c38.208-30.136,62.077-57.768,71.062-87.34
	c8.985-29.57,25.443-45.508,33.482-43.694C1639.09,808.076,1589.195,803.255,1548.07,824.543z"/>
<path style="fill:#77533B;" d="M1886.868,1013.789c-4.265-37.964-9.115-60.692-13.208-74.252
	c-35.249-48.252-74.375-74.465-117.295-94.258c0,0-0.032-0.005-0.101-0.004c-0.558,0.008-3.53,0.39-11.894,6.599
	c-3.137,2.329-7.032,5.477-11.842,9.733c-3.207,2.837-6.821,6.165-10.888,10.072c-4.067,3.907-8.587,8.391-13.608,13.537
	c-40.161,41.171-42.482,29.639-62.455,76.416c-19.974,46.777-23.412,44.076-26.301,69.34
	c-2.888,25.264-10.354,62.597-22.261,111.635c-3.72,15.324-8.061,28.836-12.739,41.228c-1.871,4.956-3.797,9.733-5.758,14.376
	c-3.922,9.285-7.989,18.029-12.056,26.59c-5.083,10.7-10.164,21.112-14.964,31.927c-15.358,34.608-56.92,96.126-70.445,129.339
	c-3.381,8.303-5.972,16.821-8.357,25.48c-5.96,21.649-10.623,44.185-23.089,66.47c-2.493,4.458-5.297,8.905-8.488,13.332
	c-3.19,4.427-6.292,8.48-9.31,12.261c-18.105,22.685-33.143,35.588-45.531,61.118c-2.064,4.255-4.056,8.86-5.975,13.921
	c-11.516,30.361-32.284,48.918-47.15,64.895c-4.956,5.325-9.254,10.364-12.336,15.457c-10.671,17.636-4.231,24.127-9.136,21.976
	c59.797,29.6,129.402,46.109,193.543,38.963c53.154-5.921,95.497-69.398,167.226-140.848
	c71.729-71.45,140.631-164.862,175.139-249.955C1882.094,1244.044,1896.556,1100.025,1886.868,1013.789z"/>
<path style="fill:#502C1F;" d="M1249.679,1671.736c20.61,23.812,94.35,55.494,136.257,80.315
	c41.908,24.821,91.551,5.716,141.985,6.848c50.433,1.131,72.059-41.695,122.168-67.908c50.108-26.212,72.385-79.062,124.144-133.16
	c51.759-54.099,67.235-94.9,102.81-165.158c35.574-70.258,33.642-88.694,41.545-144.83c4.671-33.177,16.825-71.694,25.986-97.655
	c-3.782-57.864-15.125-110.213-34.7-149.989c-1.62-3.29-3.25-6.493-4.889-9.645c-0.601-1.157-1.207-2.281-1.811-3.421
	c-1.014-1.911-2.029-3.809-3.049-5.669c-0.789-1.438-1.581-2.859-2.375-4.268c-0.798-1.419-1.6-2.82-2.404-4.209
	c-0.943-1.63-1.886-3.261-2.835-4.852c-0.514-0.861-1.031-1.7-1.547-2.549c-5.66-9.329-11.425-18.001-17.299-26.043
	c-0.002-0.003-0.004-0.005-0.005-0.008l0,0c4.094,13.56,8.944,36.288,13.208,74.252c9.688,86.236-4.774,230.256-39.281,315.349
	c-34.508,85.093-103.41,178.505-175.139,249.955c-71.729,71.45-114.072,134.927-167.226,140.848
	c-64.141,7.146-133.746-9.362-193.543-38.963c-0.762-0.334-1.775-0.86-3.191-1.602c-3.655-20.14-0.247-46.051,12.947-80.837
	c13.194-34.786,30.931-75.668,49.363-106.61c18.431-30.943,34.036-89.735,53.274-140.454c19.238-50.72,32.489-68.008,43.794-80.161
	c11.304-12.154,52.531-79.667,73.119-112.896c20.587-33.229,33.158-102.584,52.106-137.377
	c18.949-34.793,27.599-70.28,49.771-111.086c22.172-40.806,22.56-35.946,47.583-66.62c6.069-7.439,11.586-13.084,16.482-17.412
	c4.159,1.407,8.446,2.895,12.729,4.425c-21.681-7.744-43.439-14.35-48.369-15.463h-0.001l0,0
	c-8.039-1.814-24.498,14.123-33.482,43.694c-8.985,29.572-32.854,57.204-71.062,87.34c-38.207,30.136-38.342,65.787-55.897,123.839
	c-17.557,58.052-52.804,80.385-76.393,142.575c-23.589,62.19-29.686,78.264-52.957,118.528
	c-23.27,40.265-23.075,76.041-42.626,121.704c-19.552,45.663-33.387,70.374-39.918,105.24c-6.531,34.867-14.859,68.591-9.347,89.357
	c5.511,20.764,8.348,26.689,18.881,32.211c-56.088-28.371-103.205-68.226-128.428-110.816l0,0v0
	c1.324,11.352,3.085,22.528,5.309,33.48c0.043,0.212,0.084,0.425,0.128,0.636c1.099,5.368,2.312,10.682,3.642,15.934
	c0.05,0.197,0.104,0.391,0.154,0.587c0.086,0.336,0.193,0.662,0.28,0.998C1209.918,1634.926,1237.58,1657.757,1249.679,1671.736z"/>
<path style="fill:#2D1A14;" d="M1733.693,835.544c-0.553-0.214-1.125-0.424-1.682-0.637c-1.626-0.621-3.256-1.241-4.915-1.856
	c-0.402-0.149-0.809-0.295-1.213-0.443c-1.834-0.676-3.677-1.349-5.526-2.013c-0.234-0.083-0.467-0.164-0.701-0.247
	c-4.283-1.53-8.569-3.018-12.729-4.425c-4.896,4.328-10.413,9.973-16.482,17.412c-25.023,30.674-25.412,25.814-47.583,66.62
	c-22.171,40.806-30.822,76.293-49.771,111.086c-18.949,34.792-31.52,104.148-52.106,137.377
	c-20.588,33.229-61.815,100.742-73.119,112.896c-11.305,12.153-24.556,29.441-43.794,80.161
	c-19.238,50.719-34.843,109.511-53.274,140.454c-18.431,30.943-36.169,71.824-49.363,106.61
	c-13.195,34.785-16.602,60.696-12.947,80.837c1.416,0.742,2.429,1.267,3.191,1.602c4.906,2.151-1.535-4.339,9.136-21.976
	c3.082-5.094,7.381-10.133,12.336-15.457c14.865-15.977,35.634-34.534,47.15-64.895c1.919-5.06,3.91-9.666,5.975-13.921
	c12.388-25.53,27.425-38.433,45.531-61.118c3.018-3.781,6.121-7.834,9.31-12.261c3.191-4.428,5.995-8.875,8.488-13.332
	c12.466-22.285,17.129-44.821,23.089-66.47c2.384-8.66,4.975-17.178,8.357-25.48c13.524-33.213,55.087-94.731,70.445-129.339
	c4.8-10.815,9.881-21.226,14.964-31.926c4.067-8.561,8.134-17.305,12.056-26.59c1.961-4.643,3.887-9.42,5.758-14.376
	c4.678-12.392,9.019-25.903,12.739-41.228c11.906-49.038,19.372-86.371,22.261-111.635c2.889-25.264,6.327-22.563,26.301-69.34
	c19.974-46.777,22.294-35.245,62.455-76.416c5.021-5.146,9.541-9.63,13.608-13.537c4.067-3.906,7.681-7.235,10.888-10.072
	c4.81-4.256,8.705-7.404,11.842-9.733c8.364-6.21,11.336-6.591,11.894-6.599c0.069-0.001,0.101,0.004,0.101,0.004l0,0h0
	c-0.261-0.132-0.571-0.269-0.839-0.402c-1.296-0.639-2.624-1.283-4.06-1.941c-0.642-0.295-1.356-0.598-2.023-0.896
	c-1.141-0.508-2.259-1.014-3.464-1.529c-0.667-0.285-1.386-0.574-2.071-0.861c-1.284-0.537-2.554-1.073-3.891-1.613
	c-0.637-0.257-1.308-0.514-1.955-0.772C1736.619,836.691,1735.18,836.117,1733.693,835.544z"/>
<path style="fill:#8C684E;" d="M1869.918,1105.541c-4.171-59.599-3.596-174.42-91.534-218.313c0,0-31.904-9.251-62.309,23.844
	c-30.404,33.096-54.844,38.702-55.001,80.295c-0.157,41.594,1.727,60.159-7.421,90.161c-9.148,30.001-32.312,23.446-19.081,75.324
	c13.23,51.877,48.479,94.256,55.677,128.225c7.198,33.97-13.173,52.378,2.462,87.638c15.635,35.26,44.297,24.406,59.967,6.625
	c15.67-17.781,44.93-71.393,56.702-84.779c11.772-13.386,24.35-46.549,35.079-74.835
	C1855.187,1191.442,1874.089,1165.14,1869.918,1105.541z"/>
<path style="fill:#8C684E;" d="M1625.941,1242.837c-27.303-7.667-63.701,56.168-76.516,119.366
	c-12.813,63.198-32.119,67.032-83.779,167.933c-51.661,100.901-73.388,99.354-87.222,141.711
	c-13.835,42.356,79.824,7.219,139.351-4.517c59.526-11.736,70.903-61.52,93.411-144.392c22.508-82.871-2.666-128.28,38.165-206.512
	C1690.181,1238.194,1634.223,1245.161,1625.941,1242.837z"/>
<path style="fill:#99745C;" d="M1707.197,999.193c35.787,29.194,44.534,21.354,78.906,79.021
	c34.373,57.666,36.534,116.682,50.824,90.773c14.29-25.91,5.66-219.18-56.718-256.393c0,0-36.688-4.796-59.559,26.843
	C1697.78,971.076,1671.411,970,1707.197,999.193z"/>
<path style="fill:#99745C;" d="M1723.425,1032.125c0,0-49.353,5.826-50.918,34.241c-1.566,28.414-15.826,31.931-3.179,56.81
	c12.647,24.88,0.831,26.616,30.215,49.157c29.385,22.54,65.165,81.163,83.296,51.011
	C1800.97,1193.191,1785.775,1072.882,1723.425,1032.125z"/>
<path style="fill:#99745C;" d="M1502.482,1514.625c-7.351,10.932-23.354,27.319-39.882,58.984
	c-16.528,31.665-71.267,30.132-44.739,70.745c26.528,40.612,36.807,24.974,69.069,11.277c32.262-13.696,54.176-12.04,68.579-35.605
	c14.402-23.566,28.124-50.55,20.926-77.35C1569.237,1515.874,1519.682,1489.047,1502.482,1514.625z"/>
<path style="fill:#99745C;" d="M1606.624,1340.064c-21.11,3.472-62.209,88.297-62.209,88.297s-23.952,21.966-14.027,36.982
	c9.925,15.016,20.569,22.25,38.185,22.87c17.616,0.621,32.057,30.569,33.615-13.431c1.557-44-4.766-76.051-3.555-93.121
	C1599.843,1364.59,1627.734,1336.592,1606.624,1340.064z"/>
<path style="fill:#99745C;" d="M1290.1,1434.068c36.347-13.465,44.036-63.152,61.619-108.937
	c17.582-45.785,29.235-65.879,55.422-123.156c26.188-57.276,40.742-77.998,47.166-130.231c6.423-52.233,17.657-52.435,25.774-67.952
	c8.116-15.516,39.036-55.854,81.857-86.386c42.82-30.531,30.904-28.53,40.791-60.481c9.888-31.953-8.924-23.536-8.924-23.536
	s-66.348,39.613-77.714,51.933c-11.368,12.319-70.026,72.841-97.74,104.726c-27.714,31.885-43.185,55.025-73.569,93.95
	c-30.384,38.926-53.295,69.914-68.564,104.288c-15.27,34.374-51.996,125.319-63.684,167.901
	c-11.688,42.582-19.321,86.236,8.086,105.432C1248.028,1480.815,1253.754,1447.534,1290.1,1434.068z"/>
<path style="fill:#321D16;" d="M1945.977,1194.015c-0.003-1.612-0.024-3.212-0.036-4.818l0,0
	c-0.042-5.109-0.136-10.188-0.285-15.234c-0.047-1.607-0.088-3.217-0.146-4.817c-0.232-6.349-0.526-12.658-0.933-18.887
	c-0.001-0.023-0.001-0.047-0.003-0.07c0,0.001,0,0.001,0,0.001c-9.161,25.96-21.315,64.477-25.986,97.655
	c-7.903,56.135-5.971,74.571-41.545,144.83c-35.575,70.258-51.051,111.059-102.81,165.158
	c-51.759,54.099-74.036,106.948-124.144,133.16c-50.108,26.213-71.734,69.038-122.168,67.908
	c-50.434-1.132-100.076,17.973-141.985-6.848c-41.907-24.821-115.647-56.503-136.257-80.315
	c-12.099-13.979-39.76-36.81-60.109-51.541l0,0c1.146,4.432,2.379,8.817,3.695,13.156c0.723,2.384,1.531,4.721,2.308,7.077
	c0.791,2.4,1.579,4.799,2.427,7.166c0.839,2.346,1.728,4.663,2.623,6.976c0.911,2.354,1.851,4.691,2.822,7.009
	c0.929,2.224,1.869,4.441,2.854,6.63c1.121,2.492,2.308,4.94,3.501,7.386c0.943,1.934,1.851,3.89,2.84,5.794
	c2.019,3.887,4.13,7.713,6.344,11.471c0.117,0.199,0.23,0.4,0.347,0.598c0.892,1.505,1.866,2.954,2.79,4.437
	c1.665,2.673,3.351,5.333,5.122,7.934c1.139,1.673,2.331,3.308,3.514,4.95c0.899,1.247,1.745,2.531,2.669,3.759
	c0.171,0.228,0.35,0.448,0.522,0.675c0.673,0.888,1.406,1.734,2.094,2.613c1.234,1.578,2.48,3.147,3.758,4.692
	c0.383,0.464,0.739,0.946,1.126,1.406c0.461,0.546,0.919,1.093,1.385,1.636c1.217,1.417,2.512,2.779,3.769,4.169
	c1.152,1.274,2.27,2.574,3.456,3.824c0.269,0.284,0.513,0.585,0.784,0.868c0.026,0.027,0.05,0.055,0.076,0.083
	c2.83,2.947,5.771,5.809,8.793,8.613c0.243,0.225,0.474,0.46,0.717,0.684c0.665,0.611,1.385,1.177,2.058,1.781
	c2.108,1.889,4.243,3.758,6.443,5.576c0.792,0.655,1.582,1.313,2.387,1.959c0.199,0.16,0.414,0.308,0.613,0.467
	c1.359,1.083,2.775,2.121,4.169,3.177c1.496,1.135,2.94,2.31,4.477,3.412c0.164,0.118,0.317,0.243,0.482,0.36
	c1.102,0.787,2.287,1.509,3.411,2.28c1.538,1.055,3.094,2.098,4.672,3.123c0.748,0.486,1.459,1.002,2.217,1.482
	c0.954,0.603,1.933,1.184,2.901,1.776c1.361,0.832,2.777,1.619,4.166,2.428c1.458,0.849,2.883,1.724,4.372,2.547
	c0.97,0.537,1.938,1.076,2.922,1.602c3.754,2.009,7.574,3.964,11.525,5.811c4.749,2.219,9.665,4.432,14.73,6.617
	c4.043,1.744,8.206,3.462,12.431,5.161c7.276,2.925,14.804,5.761,22.55,8.462c4.663,1.626,9.382,3.214,14.189,4.727
	c6.41,2.018,12.952,3.911,19.58,5.679c4.813,1.284,9.677,2.495,14.584,3.62c9.776,2.243,19.715,4.168,29.762,5.657
	c9.22,1.366,18.527,2.37,27.866,2.964c0.366,0.023,0.731,0.049,1.097,0.071c34.942,2.094,70.305-1.719,103.312-14.928
	c9.037-3.617,17.898-7.937,26.525-13.032c2.876-1.699,5.787-3.438,8.73-5.22c5.886-3.562,11.901-7.291,18.02-11.19
	c3.06-1.95,6.146-3.942,9.255-5.977c87.056-56.992,192.269-147.78,249.508-283.244c2.421-5.73,4.747-11.578,7.021-17.48
	c0.685-1.775,1.346-3.572,2.016-5.361c1.622-4.327,3.207-8.69,4.75-13.097c0.662-1.892,1.328-3.78,1.976-5.687
	c1.782-5.24,3.511-10.529,5.182-15.866c0.28-0.895,0.579-1.772,0.857-2.669c1.924-6.233,3.761-12.536,5.534-18.883
	c0.482-1.723,0.936-3.461,1.406-5.191c1.299-4.783,2.559-9.591,3.772-14.426c0.5-1.996,0.997-3.99,1.484-5.994
	c1.267-5.224,2.48-10.475,3.646-15.748c0.29-1.311,0.6-2.612,0.883-3.926c1.424-6.598,2.766-13.228,4.03-19.882
	c0.268-1.411,0.509-2.827,0.77-4.239c0.98-5.306,1.912-10.625,2.789-15.954c0.323-1.962,0.637-3.922,0.945-5.885
	c0.826-5.248,1.599-10.502,2.325-15.76c0.209-1.519,0.435-3.033,0.637-4.552c0.9-6.789,1.724-13.582,2.455-20.369
	c0.086-0.807,0.155-1.613,0.238-2.42c0.621-5.931,1.173-11.854,1.664-17.767c0.151-1.82,0.287-3.636,0.427-5.454
	c0.399-5.232,0.745-10.451,1.041-15.657c0.09-1.598,0.194-3.198,0.274-4.794C1945.662,1220.464,1945.994,1207.152,1945.977,1194.015
	L1945.977,1194.015z"/>
<path style="fill:#673821;" d="M530.482,1052.88c0.044-0.482,0.085-1.044,0.127-1.603c-2.582-10.534-8.853-24.507-15.26-38.876
	C523.33,1037.791,529.93,1058.916,530.482,1052.88z"/>
<path style="fill:#673821;" d="M446.452,912.832c19.31,10.672,43.994,27.764,51.185,46.46
	C497.636,941.513,468.498,923.738,446.452,912.832z"/>
<g>
	<path style="fill:#673821;" d="M879.94,1596.961c0.415-1.588,0.822-3.175,1.196-4.755c-0.029,0.048-0.062,0.093-0.091,0.141
		C880.68,1593.884,880.355,1595.414,879.94,1596.961z"/>
	<path style="fill:#673821;" d="M869.755,1458.428c-12.999-51.994-31.563-93.588-62.759-158.58
		c-5.779-12.04-10.574-28.827-14.92-48.803c-5.145-23.652-9.659-51.792-14.413-81.915c-12.905-81.768-27.603-178.068-61.656-238.434
		c-12.481-22.126-30.288-38.924-50.499-51.671c-11.071-6.984-22.872-12.722-34.907-17.482
		c-66.67-26.362-140.765-21.834-140.765-21.834c-23.073,1.709-46.206,6.977-68.859,15.093c-4.923,2.214-38.65,18.027-53.326,42.099
		c-15.849,25.996-31.196,33.795-44.194,54.592c-12.998,20.798-33.796,28.596-41.594,51.994
		c-7.798,23.396-15.598,54.592-18.197,98.787c-2.6,44.195,10.399,41.595,23.397,85.789c12.998,44.194,31.196,101.387,31.196,140.382
		c0,38.995,7.798,20.797,15.598,42.31c7.799,21.513,20.798,38.279,31.196,64.275c10.399,25.997,25.997,25.997,41.744,44.195
		c15.747,18.197,7.65,18.197,2.451,38.995c-5.2,20.797-2.6,25.996,12.395,54.592c14.995,28.597,8.402,15.599,31.799,24.911
		c23.397,9.313,31.196,8.885,49.393,1.087c18.198-7.799-2.599,28.597-15.598,38.995c-12.998,10.399-18.198,54.593,0,80.589
		c18.197,25.997,25.996,38.995,43.243,59.793c17.248,20.797,39.947,31.195,71.143,36.395c31.195,5.2,57.192,2.6,83.188-12.998
		c12.636-7.582,16.644-15.763,17.456-22.185c-0.621-4.33-1.274-8.281-1.858-11.611c-1.021-5.821-0.471-10.426,1.033-14.228
		l-0.061,0.036c0,0-6.17-74.196-21.769-131.389c-15.598-57.193-33.796-106.586-51.993-168.978
		c-18.198-62.392-90.988-257.367-109.186-291.162c-18.197-33.796-59.792-85.789-41.594-103.987
		c18.197-18.197,31.196,20.798,31.196,0c0-20.797-35.01-83.189-35.702-93.587c-0.693-10.399-42.288-57.193-50.087-62.392
		c-1.439-0.96-0.209-0.761,2.816,0.402c11.719,1.713,57.131,8.773,75.175,17.796c20.797,10.398,23.397,38.995,30.244,67.591
		c2.914,12.168,3.784,21.23,4.909,27.17c2.342-9.941,5.943-20.976,11.639-32.369c15.598-31.196,28.597-20.797,36.396-62.392
		c7.799-41.594,15.598-54.592,15.598-54.592v-0.001l0.001,0.003c0.002,0.006,1.111,2.231,2.62,5.949
		c3.466,7.078,10.379,18.747,20.775,25.245c15.598,9.749-2.599,31.196-10.399,67.591c-7.799,36.395-15.598,57.192-26.278,101.386
		c-10.68,44.195-2.318,44.195,18.479,103.986c20.797,59.793,31.196,70.191,46.794,106.586c5.199-28.596,9.595-51.993-0.402-80.589
		c-9.997-28.596-28.194-38.995-33.394-72.79c-5.199-33.796,17.053-197.3,34.471-202.99c0,0,22.453-28.403,44.685,34.001
		c22.232,62.404,35.23,72.802,30.031,111.797c-5.199,38.995,4.883,83.189,1.142,119.585c-3.742,36.395,9.257,33.795-11.541,62.391
		c-20.797,28.597-47.063,86.022-19.632,56.009c27.431-30.012,40.509-82.005,53.468-79.406c12.958,2.6,23.357,15.598,20.757,46.794
		c-2.6,31.196-44.114,62.392-20.757,64.992c23.357,2.599,28.556-51.993,46.754-12.999c18.197,38.995,33.795,72.791,41.594,93.588
		c7.799,20.797,20.797,23.674-15.598,14.437c-36.395-9.238-62.312-1.438-72.75-14.437c-10.439-12.998-33.075-11.566-45.154-46.078
		c-7.035-20.101-25.836-39.075-39.292-57.067c7.476,20.98,13.687,39.956,22.013,57.067c12.998,26.712,54.593,176.061,62.432,215.659
		c7.839,39.598,18.157,25.393,28.556,33.192c10.399,7.8,33.795,15.599,72.79,0c13.29-5.316,22.887-15.792,29.855-27.26
		C891.689,1547.562,881.721,1506.289,869.755,1458.428z"/>
	<path style="fill:#673821;" d="M420.781,854.868c0.066-0.024,0.133-0.043,0.199-0.067c0.028-0.012,0.083-0.037,0.109-0.05
		C420.985,854.788,420.884,854.831,420.781,854.868z"/>
	<path style="fill:#673821;" d="M702.273,1779.373c-0.001,0.008-0.003,0.017-0.005,0.025c0.083,0.576,0.165,1.161,0.246,1.753
		C702.433,1780.562,702.356,1779.946,702.273,1779.373z"/>
</g>
<path style="fill:#47291B;" d="M851.191,1619.606c-38.995,15.599-62.392,7.8-72.79,0c-10.399-7.799-20.717,6.406-28.556-33.192
	c-7.839-39.598-49.434-188.947-62.432-215.659c-8.326-17.111-14.537-36.088-22.013-57.067c-9.648-12.9-16.553-25.296-14.381-37.237
	c-15.598-36.395-25.997-46.793-46.794-106.586c-20.797-59.792-29.159-59.792-18.479-103.986
	c10.68-44.194,18.479-64.992,26.278-101.386c7.799-36.395,25.997-57.843,10.399-67.591c-10.397-6.499-17.309-18.167-20.775-25.245
	c4.617,11.379,13.012,36.854,5.178,56.441c-10.399,25.997-18.198,25.997-31.196,67.591c-12.999,41.595-10.03,70.191-14.114,88.389
	c-4.084,18.197-8.915,18.197,0,49.393c8.914,31.196,27.112,72.791,45.31,122.184c18.197,49.394,36.395,75.391,59.792,140.382
	c23.397,64.991,72.871,296.215,83.229,328.786c0.453,0.005,0.906,0.011,1.379,0.013c0.619,0.004,1.253,0.005,1.906,0.001
	c1.957-0.013,4.067-0.074,6.34-0.249c0.758-0.058,1.534-0.129,2.328-0.215c3.178-0.342,6.651-0.924,10.442-1.899
	c9.479-2.437,20.947-7.329,34.758-17.078c24.859-17.547,39.261-31.805,49.881-49.713c8.26-13.928,14.232-30.064,21.056-51.673
	c0.747-2.364,1.396-4.709,2.008-7.048c0.415-1.588,0.822-3.175,1.196-4.755C874.161,1603.729,864.536,1614.268,851.191,1619.606z"/>
<path style="fill:#47291B;" d="M497.637,959.292L497.637,959.292c5.453,14.179,11.943,34.756,17.711,53.109
	c6.407,14.369,12.679,28.342,15.26,38.876c0.529-7.092,1.01-20.207,4.782-36.218c-1.125-5.94-1.995-15.002-4.909-27.17
	c-6.847-28.596-9.447-57.193-30.244-67.591c-18.043-9.023-63.455-16.083-75.175-17.796c4.297,1.653,12.236,5.271,21.389,10.33
	C468.498,923.738,497.636,941.513,497.637,959.292z"/>
<path style="fill:#31190F;" d="M666.615,1396.035c-23.397-64.991-41.595-90.988-59.792-140.382
	c-18.198-49.393-36.396-90.988-45.31-122.184c-8.915-31.196-4.084-31.196,0-49.393c4.084-18.198,1.116-46.794,14.114-88.389
	c12.998-41.595,20.797-41.595,31.196-67.591c7.834-19.587-0.56-45.062-5.178-56.441c-1.509-3.718-2.618-5.943-2.62-5.949
	l-0.001-0.001v-0.001c0,0-7.799,12.998-15.598,54.592c-7.799,41.595-20.798,31.196-36.396,62.392
	c-5.696,11.393-9.297,22.429-11.639,32.369c-3.772,16.012-4.253,29.126-4.782,36.218c-0.041,0.56-0.083,1.121-0.127,1.603
	c-0.551,6.036-7.152-15.089-15.134-40.479c-5.768-18.353-12.258-38.929-17.711-53.109l0,0c-7.192-18.696-31.875-35.788-51.185-46.46
	c-9.153-5.058-17.092-8.677-21.389-10.33c-3.024-1.163-4.255-1.362-2.816-0.402c7.799,5.199,49.393,51.993,50.087,62.392
	c0.692,10.398,35.702,72.79,35.702,93.587c0,20.798-12.999-18.197-31.196,0c-18.198,18.198,23.397,70.191,41.594,103.987
	c18.198,33.795,90.988,228.77,109.186,291.162c18.197,62.392,36.395,111.786,51.993,168.978
	c15.598,57.193,21.769,131.389,21.769,131.389l0.061-0.036l48.401-28.738l0,0l0,0
	C739.485,1692.251,690.012,1461.026,666.615,1396.035z"/>
<path style="fill:#47291B;" d="M704.614,1808.012l0.052-0.068c-0.009-0.608-0.026-1.21-0.04-1.814
	c-0.019-0.749-0.032-1.502-0.058-2.243c-0.001-0.008-0.001-0.016-0.002-0.025c-0.136-3.742-0.38-7.379-0.691-10.872
	c-0.01-0.109-0.018-0.22-0.029-0.329c-0.103-1.142-0.214-2.268-0.331-3.375c-0.003-0.038-0.008-0.077-0.011-0.115
	c-0.366-3.452-0.789-6.734-1.231-9.8c-0.805,6.426-4.808,14.619-17.461,22.21c-25.996,15.599-51.993,18.198-83.188,12.998
	c-31.196-5.2-53.895-15.598-71.143-36.395c-17.246-20.798-25.045-33.796-43.243-59.793c-18.198-25.996-12.998-70.19,0-80.589
	c12.998-10.398,33.796-46.794,15.598-38.995c-18.197,7.799-25.997,8.226-49.393-1.087c-23.397-9.312-16.804,3.686-31.799-24.911
	c-14.995-28.596-17.595-33.795-12.395-54.592c5.199-20.798,13.297-20.798-2.451-38.995c-15.747-18.198-31.345-18.198-41.744-44.195
	c-10.398-25.996-23.397-42.762-31.196-64.275c-7.799-21.514-15.598-3.316-15.598-42.31c0-38.995-18.198-96.188-31.196-140.382
	c-12.997-44.194-25.996-41.594-23.397-85.789c2.6-44.194,10.399-75.39,18.197-98.787c7.799-23.397,28.597-31.196,41.594-51.994
	c12.998-20.797,28.346-28.596,44.194-54.592c14.759-24.21,48.817-40.079,53.435-42.149c-14.095,5.03-27.999,11.188-41.587,18.291
	c-0.495,0.258-0.989,0.511-1.481,0.772c-3.051,1.613-6.084,3.275-9.1,4.983c-0.535,0.302-1.068,0.611-1.602,0.917
	c-3.085,1.767-6.156,3.569-9.201,5.431c-0.095,0.058-0.19,0.119-0.285,0.178c-9.986,6.12-19.748,12.74-29.228,19.799
	c-0.071,0.052-0.143,0.103-0.214,0.156c-2.726,2.031-5.415,4.117-8.094,6.22c-0.729,0.573-1.462,1.142-2.188,1.72
	c-2.482,1.977-4.94,3.986-7.379,6.021c-0.857,0.715-1.709,1.437-2.56,2.161c-2.393,2.03-4.772,4.077-7.119,6.159
	c-0.728,0.647-1.442,1.308-2.167,1.96c-7.606,6.848-14.948,13.97-22.004,21.32c-0.839,0.874-1.694,1.737-2.525,2.619
	c-0.21,0.223-0.411,0.452-0.62,0.674c-14.11,36.251-35.476,91.782-43.862,116.945c-12.999,38.995-18.198,38.995-15.599,96.188
	c2.6,57.193,0,57.425,12.999,136.598c12.998,79.174,12.998,118.168,36.395,164.962c23.397,46.794,25.996,62.392,72.79,116.985
	c46.794,54.593,64.103,59.792,103.542,122.184c39.439,62.391,47.937,75.39,90.481,109.186
	c42.546,33.795,93.289,46.793,121.21,36.395c27.693-10.313,52.519-45.617,52.925-46.196
	C704.619,1807.588,704.615,1807.801,704.614,1808.012z"/>
<path style="fill:#2B1913;" d="M704.616,1807.38c-0.406,0.579-25.232,35.883-52.925,46.196c-27.921,10.398-78.664-2.6-121.21-36.395
	c-42.544-33.796-51.042-46.795-90.481-109.186c-39.439-62.392-56.748-67.591-103.542-122.184
	c-46.794-54.593-49.394-70.191-72.79-116.985c-23.397-46.794-23.397-85.788-36.395-164.962
	c-12.999-79.174-10.399-79.406-12.999-136.598c-2.6-57.192,2.6-57.192,15.599-96.188c8.387-25.163,29.752-80.693,43.862-116.945
	c0.007-0.016,0.014-0.035,0.021-0.052c-1.037,1.105-2.032,2.24-3.056,3.353c-1.585,1.726-3.179,3.446-4.731,5.194
	c-0.395,0.445-0.79,0.887-1.184,1.334c-0.718,0.816-1.407,1.651-2.118,2.471c-1.587,1.831-3.177,3.661-4.726,5.513
	c-0.595,0.711-1.182,1.426-1.771,2.14c-0.443,0.537-0.867,1.084-1.307,1.622c-1.552,1.904-3.104,3.808-4.617,5.733
	c-0.785,0.998-1.554,2.003-2.327,3.006c-0.196,0.254-0.385,0.513-0.579,0.767c-1.5,1.956-2.993,3.915-4.45,5.89
	c-0.931,1.263-1.84,2.534-2.754,3.805c-1.431,1.99-2.85,3.985-4.236,5.992c-0.08,0.116-0.164,0.229-0.243,0.345
	c-0.809,1.174-1.596,2.354-2.389,3.533c-1.35,2.008-2.682,4.021-3.985,6.044c-0.246,0.383-0.509,0.76-0.754,1.144
	c-0.599,0.937-1.172,1.882-1.76,2.823c-1.262,2.013-2.501,4.033-3.714,6.06c-0.401,0.668-0.83,1.329-1.226,1.999
	c-0.404,0.684-0.772,1.375-1.169,2.061c-1.172,2.017-2.317,4.041-3.441,6.069c-0.433,0.782-0.898,1.555-1.323,2.337
	c-0.324,0.595-0.615,1.196-0.934,1.792c-1.084,2.023-2.135,4.051-3.169,6.082c-0.575,1.128-1.166,2.254-1.726,3.385
	c-0.134,0.27-0.253,0.542-0.386,0.813c-0.996,2.028-1.952,4.061-2.898,6.096c-0.654,1.408-1.313,2.814-1.943,4.225
	c-0.907,2.033-1.768,4.07-2.623,6.108c-0.598,1.423-1.206,2.845-1.778,4.27c-0.82,2.046-1.586,4.094-2.352,6.142
	c-0.027,0.072-0.057,0.145-0.084,0.217c-0.5,1.339-1.016,2.676-1.492,4.016c-0.737,2.074-1.412,4.148-2.092,6.223
	c-0.124,0.378-0.259,0.757-0.382,1.134c-0.327,1.015-0.673,2.03-0.986,3.043c-0.661,2.141-1.252,4.28-1.85,6.418
	c-0.18,0.64-0.381,1.282-0.554,1.921c-0.183,0.676-0.383,1.351-0.559,2.027c-0.613,2.338-1.143,4.672-1.677,7.007
	c-0.178,0.774-0.387,1.551-0.557,2.324c-0.073,0.339-0.158,0.679-0.23,1.019c-0.733,3.438-1.387,6.87-1.946,10.294
	c-3.25,19.903-5.657,37.966-7.33,54.625c-0.669,6.664-1.22,13.102-1.661,19.344c-3.306,46.816-0.383,82.564,5.877,119.027
	c0.834,4.862,1.728,9.737,2.675,14.652c3.786,19.66,8.412,39.969,13.439,62.716c2.368,10.717,4.552,20.93,6.63,30.792
	c0.436,2.073,0.869,4.123,1.295,6.16c7.282,34.796,13.14,64.51,19.66,91.142c0.497,2.029,1.002,4.041,1.507,6.035
	c6.83,26.941,14.548,50.84,25.501,73.844c8.124,17.06,17.771,36.405,29.814,56.924c7.226,12.311,15.314,25.046,24.453,37.963
	c9.14,12.918,19.33,26.017,30.76,39.06c3.81,4.347,7.758,8.689,11.85,13.015c16.37,17.304,35.054,34.364,56.502,50.612
	c26.809,20.31,56.411,40.621,86.107,58.074c14.849,8.727,29.721,16.74,44.279,23.682c2.912,1.388,5.811,2.734,8.695,4.034
	c5.769,2.6,11.475,5.016,17.1,7.228c39.372,15.479,74.701,20.882,98.585,8.371c2.024-1.061,3.925-2.197,5.773-3.366
	c0.023-0.014,0.047-0.027,0.069-0.04c0.433-0.275,0.861-0.554,1.285-0.836c1.797-1.19,3.54-2.413,5.172-3.701
	c0.017-0.013,0.032-0.028,0.049-0.041c1.634-1.292,3.161-2.646,4.636-4.029c0.151-0.141,0.325-0.27,0.475-0.413
	c0.023-0.022,0.049-0.043,0.072-0.065c0.164-0.156,0.301-0.328,0.463-0.485c2.937-2.86,5.56-5.893,7.889-9.069
	c0.211-0.288,0.422-0.576,0.628-0.866c2.35-3.305,4.404-6.75,6.178-10.307c0.086-0.172,0.172-0.344,0.258-0.516
	C702.722,1844.376,704.921,1824.931,704.616,1807.38z"/>
<path style="fill:#925B38;" d="M380.652,1084.076c-54.075-8.427-57.193,101.387-49.393,161.179
	c7.799,59.792,18.197,72.79,33.795,103.986c15.598,31.196,23.397,12.998,57.193,29.186c9.552,4.575-5.199,56.603-12.998,67.002
	c-7.799,10.399,5.689,45.59,12.998,49.394c6.213,3.234,37.51,2.811,56.35-6.959c-7.769,5.926-17.574,12.593-25.154,14.759
	c-18.198,5.199,5.199,23.397,33.795,38.995c28.597,15.598,51.994-10.399,72.791-7.799c20.797,2.599,5.199,49.393-21.515,83.189
	c-26.714,33.796-12.281,20.797-30.478,43.05c-18.198,22.253,18.198,60.937,41.595,93.539c23.397,32.602,59.792,27.19,119.584,19.391
	c59.793-7.799,2.6-23.397,0-57.193c-2.599-33.796-15.598-93.588-28.596-127.383c-12.998-33.796-18.197-57.193-52.789-75.391
	c-34.592-18.197-12.202-20.797-2.085-51.993c10.118-31.196-17.916-23.397-55.262-18.198c-37.345,5.199-53.642,25.996-90.505,28.596
	c-36.863,2.6,0.467-23.397,29.064-59.792c28.597-36.395,25.996-18.198,61.441-33.206c35.444-15.009,21.748-3.188,42.545-26.586
	c20.797-23.397-10.399-31.196-28.597-59.792c-18.197-28.597-28.596-59.792-41.594-83.189
	c-12.998-23.397-25.996-67.591-46.794-98.787C435.245,1078.877,380.652,1084.076,380.652,1084.076z"/>
<path style="fill:#925B38;" d="M349.456,974.89c-7.799,28.596-10.398,51.993,10.399,73.106
	c20.797,21.113,41.595-13.314,80.145-5.515c38.551,7.799,36.84,15.598,29.041-38.995c-7.799-54.592-47.397-72.79-47.397-72.79
	C393.1,905.499,357.255,946.294,349.456,974.89z"/>
<path style="fill:#925B38;" d="M512.228,865.704c-14.151,4.577,19.205,54.593,18.254,70.191c-0.95,15.598,16.548,18.198,29.547,0
	c12.998-18.197,25.996-28.474,12.998-59.792C560.029,844.785,512.228,865.704,512.228,865.704z"/>
<path style="fill:#925B38;" d="M665.398,1313.688c13.456,17.992,32.257,36.966,39.292,57.067
	c12.078,34.512,34.715,33.08,45.154,46.078c10.438,12.998,36.355,5.199,72.75,14.437c36.395,9.238,23.397,6.36,15.598-14.437
	c-7.799-20.797-23.397-54.593-41.594-93.588c-18.198-38.994-23.397,15.598-46.754,12.999c-23.357-2.6,18.157-33.796,20.757-64.992
	c2.6-31.196-7.799-44.194-20.757-46.794c-12.958-2.599-26.037,49.394-53.468,79.406c-27.432,30.012-1.165-27.413,19.632-56.009
	c20.798-28.596,7.799-25.996,11.541-62.391c3.741-36.396-6.341-80.59-1.142-119.585c5.199-38.995-7.799-49.393-30.031-111.797
	c-22.232-62.403-44.685-34.001-44.685-34.001c-17.418,5.69-39.67,169.195-34.471,202.99c5.2,33.795,23.397,44.194,33.394,72.79
	c9.997,28.596,5.601,51.993,0.402,80.589C648.846,1288.392,655.751,1300.788,665.398,1313.688z"/>
<path style="fill:#925B38;" d="M768.001,1436.582c-36.841-5.991-5.199,75.39,0,106.586c5.2,31.196,14.055,26.793,58.25,44.99
	c44.194,18.197,51.682-5.995,43.138-42.39c-8.545-36.396-10.399-33.796-22.408-49.394c-12.009-15.598,22.408-5.199,0-31.196
	C824.573,1439.182,768.001,1436.582,768.001,1436.582z"/>
</svg>
